<?xml version="1.0" encoding="UTF-8" standalone="no"?>
<svg
   xmlns:dc="http://purl.org/dc/elements/1.1/"
   xmlns:cc="http://creativecommons.org/ns#"
   xmlns:rdf="http://www.w3.org/1999/02/22-rdf-syntax-ns#"
   xmlns:svg="http://www.w3.org/2000/svg"
   xmlns="http://www.w3.org/2000/svg"
   xmlns:sodipodi="http://sodipodi.sourceforge.net/DTD/sodipodi-0.dtd"
   xmlns:inkscape="http://www.inkscape.org/namespaces/inkscape"
   version="1.1"
   id="Layer_1"
   x="0px"
   y="0px"
   viewBox="0 0 1612.4879 1806.3582"
   enable-background="new 0 0 1950 1950"
   xml:space="preserve"
   inkscape:version="0.91 r13725"
   sodipodi:docname="filmclapper.svg"
   width="1612.4879"
   height="1806.3582"><metadata
     id="metadata23214"><rdf:RDF><cc:Work
         rdf:about=""><dc:format>image/svg+xml</dc:format><dc:type
           rdf:resource="http://purl.org/dc/dcmitype/StillImage" /><dc:title></dc:title></cc:Work></rdf:RDF></metadata><defs
     id="defs23212" /><sodipodi:namedview
     pagecolor="#ffffff"
     bordercolor="#666666"
     borderopacity="1"
     objecttolerance="10"
     gridtolerance="10"
     guidetolerance="10"
     inkscape:pageopacity="0"
     inkscape:pageshadow="2"
     inkscape:window-width="735"
     inkscape:window-height="480"
     id="namedview23210"
     showgrid="false"
     fit-margin-top="0"
     fit-margin-left="0"
     fit-margin-right="0"
     fit-margin-bottom="0"
     inkscape:zoom="0.12102564"
     inkscape:cx="841.91443"
     inkscape:cy="900.80504"
     inkscape:window-x="0"
     inkscape:window-y="0"
     inkscape:window-maximized="0"
     inkscape:current-layer="Layer_1" /><g
     id="g23088"
     transform="matrix(8.109017,0,0,5.1219018,-12070.497,-7167.9335)"><path
       d="m 1650.312,1399.692 c 1.48,0.72 3.07,0.31 4.67,0.15 4.56,2.89 4.6,8.81 6.32,13.41 1.94,8.39 5.27,16.6 5.72,25.25 -2.26,6.32 -7.74,10.82 -12.51,15.31 -10.89,10.75 -21.69,21.63 -33.19,31.75 -25.67,25.71 -52.79,49.93 -78.65,75.46 -3.41,3.51 -7.27,6.76 -9.66,11.11 3.77,0.7 7.07,-2.09 10.41,-3.46 21.32,-11.53 42.14,-23.96 63.57,-35.3 20.4,-12.48 41.1,-24.49 62.1,-35.94 4.99,-0.95 8.88,-5.01 13.99,-5.69 4.61,1.3 3.57,6.9 3.91,10.59 -0.14,49.04 0.36,98.09 0.01,147.13 -22.97,13.87 -46.53,26.74 -69.81,40.09 -31.97,18.03 -63.75,36.4 -95.89,54.14 -5.35,2.79 -10.58,5.92 -16.31,7.85 -1.89,0.81 -4.97,0.25 -4.99,-2.23 -0.66,-6.3 -0.59,-12.65 -0.78,-18.97 -0.56,-33.98 -0.47,-67.97 -0.76,-101.96 -2.99,-21.97 -6.59,-43.87 -9.19,-65.9 -0.04,-3.19 -1.66,-7.25 1.19,-9.68 10.96,-11.37 22.69,-21.96 34.09,-32.89 12.13,-11.54 24,-23.35 36.13,-34.89 15.45,-14.9 31.31,-29.37 46.53,-44.49 13.94,-14.06 28.39,-27.6 43.1,-40.84 m -6.24,14.82 c 3.31,12.25 5.71,24.91 9.64,36.9 4.46,-3.64 8.81,-7.84 11.31,-13.09 -2.11,-11.7 -5.47,-23.16 -8.78,-34.57 -4.77,2.54 -8.14,7.19 -12.17,10.76 m -6.73,6.14 c -7.32,7.39 -15.49,14.01 -22.05,22.12 3.76,12.05 6.62,24.36 9.93,36.54 9.33,-8.05 18.15,-16.78 26.34,-26 -2.67,-12.33 -6.27,-24.49 -8.97,-36.84 -2.32,0.34 -3.46,2.86 -5.25,4.18 m -27.52,26.53 c -7.51,7.41 -15.38,14.52 -22.16,22.62 -1.18,1.13 -0.18,2.76 -0.01,4.13 2.36,10.86 5.22,21.6 7.89,32.4 2.14,-0.81 3.55,-2.77 5.34,-4.13 7.65,-7.11 14.92,-14.61 22.34,-21.95 -3.01,-12 -5.95,-24.03 -9.58,-35.86 -1.75,0.05 -2.59,1.81 -3.82,2.79 m -27.54,26.4 c -8.05,7.97 -16.54,15.51 -24.33,23.72 2.86,12.09 6.34,24.03 9.36,36.07 0.36,-0.07 1.07,-0.21 1.42,-0.28 8.89,-7.95 17.34,-16.46 24.89,-25.69 -2.82,-12.01 -6.02,-23.93 -8.68,-35.98 -1.17,0.28 -1.81,1.42 -2.66,2.16 m 83.02,33.61 c 6.48,3.91 13,7.76 19.61,11.46 0.09,-7.69 0.38,-15.4 -0.39,-23.05 -6.61,3.46 -13.42,7 -19.22,11.59 m -136.47,18.16 c 3.12,12.06 5.82,24.24 9.37,36.2 9.68,-8.1 18.38,-17.37 27.58,-26.02 -3.25,-12.11 -6.21,-24.29 -9.9,-36.27 -9.09,8.6 -18.41,17.07 -27.05,26.09 m 106.25,-1.78 c 0.34,1.69 2.29,2.12 3.52,3.06 7.96,4.77 16.14,9.17 24.01,14.11 1.26,0.72 2.57,2.24 4.19,1.28 5.9,-2.62 11.43,-6.02 17.34,-8.62 1.23,-3.39 0.59,-7.42 0.44,-11.02 0.11,-1.91 -1.87,-2.52 -3.16,-3.32 -6.51,-3.69 -12.9,-7.56 -19.39,-11.26 -9.04,5.16 -18.11,10.26 -26.95,15.77 m -30.58,17.54 0.18,0.82 c 9.88,6.64 20.54,12 30.77,18.07 9.3,-5.14 18.54,-10.39 27.58,-15.98 -1.48,-2.08 -4.28,-2.92 -6.31,-4.41 -8.16,-4.86 -16.42,-9.53 -24.69,-14.2 -9.24,5.12 -18.46,10.27 -27.53,15.7 m -85.46,-6.69 c -7.44,7.34 -15.3,14.3 -22.45,21.91 1.66,2.62 5.05,3.4 7.7,4.78 8.79,3.48 17.44,7.47 26.52,10.17 1.73,-2.71 3.65,-5.27 5.72,-7.73 -3.48,-12 -6.11,-24.23 -9.45,-36.26 -3.12,1.7 -5.31,4.84 -8.04,7.13 m 55.01,24.22 c 0.25,1.41 1.86,1.82 2.91,2.6 9.39,5.43 18.8,10.83 28.12,16.37 7.84,-4.13 15.44,-8.73 23.16,-13.08 1.41,-1.15 3.94,-1.77 3.83,-3.96 -10.05,-6.17 -20.64,-11.44 -30.47,-17.97 -9.39,4.92 -18.56,10.38 -27.55,16.04 m -30.42,17.03 c 0.94,2.15 3.78,2.98 5.63,4.42 8.4,4.95 16.78,10 25.58,14.2 9.31,-4.65 18.25,-10 27.17,-15.34 -0.14,-1.24 -1.63,-1.5 -2.4,-2.13 -9.12,-5.46 -18.32,-10.77 -27.66,-15.8 -10,3.65 -19.19,9.23 -28.32,14.65 m 115.87,-8.7 c -8.64,3.02 -16.44,7.96 -24.47,12.27 -28.24,16.01 -56.42,32.13 -84.41,48.58 -7.17,4.43 -14.69,8.47 -21.05,14.05 -4.02,3.29 -3.13,8.9 -3.46,13.5 -0.18,20.99 -0.19,42.04 1.49,62.97 0.52,3.1 4.53,1.27 6.4,0.58 12.55,-5.58 24.34,-12.72 36.37,-19.33 28.19,-16.08 56.62,-31.77 84.5,-48.39 3.62,-2.57 9.07,-4.68 9.3,-9.83 0.81,-8 0.84,-16.04 0.99,-24.06 0,-16.04 0.32,-32.15 -1.28,-48.13 0.1,-2.31 -2.63,-3.11 -4.38,-2.21 m -123.32,16.36 c -8.36,16.1 -18.66,31.12 -27.2,47.12 l 0.81,0.32 c 20.59,-9.17 39.99,-20.79 59.24,-32.48 1.09,-0.78 2.57,-1.25 3.06,-2.63 -10.35,-6.19 -21.18,-11.59 -31.1,-18.45 -2.44,1.3 -4.02,3.51 -4.81,6.12 z"
       id="path23090"
       inkscape:connector-curvature="0"
       style="stroke:#000000;stroke-width:0.5" /><path
       d="m 1644.072,1414.512 c 4.03,-3.57 7.4,-8.22 12.17,-10.76 3.31,11.41 6.67,22.87 8.78,34.57 -2.5,5.25 -6.85,9.45 -11.31,13.09 -3.93,-11.99 -6.33,-24.65 -9.64,-36.9 z"
       id="path23092"
       inkscape:connector-curvature="0"
       style="fill:#ffffff;stroke:#ffffff;stroke-width:0.5" /><path
       d="m 1637.342,1420.652 c 1.79,-1.32 2.93,-3.84 5.25,-4.18 2.7,12.35 6.3,24.51 8.97,36.84 -8.19,9.22 -17.01,17.95 -26.34,26 -3.31,-12.18 -6.17,-24.49 -9.93,-36.54 6.56,-8.11 14.73,-14.73 22.05,-22.12 z"
       id="path23094"
       inkscape:connector-curvature="0"
       style="fill:#747474;stroke:#747474;stroke-width:0.5" /><path
       d="m 1609.822,1447.182 c 1.23,-0.98 2.07,-2.74 3.82,-2.79 3.63,11.83 6.57,23.86 9.58,35.86 -7.42,7.34 -14.69,14.84 -22.34,21.95 -1.79,1.36 -3.2,3.32 -5.34,4.13 -2.67,-10.8 -5.53,-21.54 -7.89,-32.4 -0.17,-1.37 -1.17,-3 0.01,-4.13 6.78,-8.1 14.65,-15.21 22.16,-22.62 z"
       id="path23096"
       inkscape:connector-curvature="0"
       style="fill:#ffffff;stroke:#ffffff;stroke-width:0.5" /><path
       d="m 1582.282,1473.582 c 0.85,-0.74 1.49,-1.88 2.66,-2.16 2.66,12.05 5.86,23.97 8.68,35.98 -7.55,9.23 -16,17.74 -24.89,25.69 -0.35,0.07 -1.06,0.21 -1.42,0.28 -3.02,-12.04 -6.5,-23.98 -9.36,-36.07 7.79,-8.21 16.28,-15.75 24.33,-23.72 z"
       id="path23098"
       inkscape:connector-curvature="0"
       style="fill:#747474;stroke:#747474;stroke-width:0.5" /><path
       d="m 1665.302,1507.192 c 5.8,-4.59 12.61,-8.13 19.22,-11.59 0.77,7.65 0.48,15.36 0.39,23.05 -6.61,-3.7 -13.13,-7.55 -19.61,-11.46 z"
       id="path23100"
       inkscape:connector-curvature="0"
       style="fill:#ffffff;stroke:#ffffff;stroke-width:0.5" /><path
       d="m 1528.832,1525.352 c 8.64,-9.02 17.96,-17.49 27.05,-26.09 3.69,11.98 6.65,24.16 9.9,36.27 -9.2,8.65 -17.9,17.92 -27.58,26.02 -3.55,-11.96 -6.25,-24.14 -9.37,-36.2 z"
       id="path23102"
       inkscape:connector-curvature="0"
       style="fill:#ffffff;stroke:#ffffff;stroke-width:0.5" /><path
       d="m 1635.082,1523.572 c 8.84,-5.51 17.91,-10.61 26.95,-15.77 6.49,3.7 12.88,7.57 19.39,11.26 1.29,0.8 3.27,1.41 3.16,3.32 0.15,3.6 0.79,7.63 -0.44,11.02 -5.91,2.6 -11.44,6 -17.34,8.62 -1.62,0.96 -2.93,-0.56 -4.19,-1.28 -7.87,-4.94 -16.05,-9.34 -24.01,-14.11 -1.23,-0.94 -3.18,-1.37 -3.52,-3.06 z"
       id="path23104"
       inkscape:connector-curvature="0"
       style="fill:#747474;stroke:#747474;stroke-width:0.5" /><path
       d="m 1604.502,1541.112 c 9.07,-5.43 18.29,-10.58 27.53,-15.7 8.27,4.67 16.53,9.34 24.69,14.2 2.03,1.49 4.83,2.33 6.31,4.41 -9.04,5.59 -18.28,10.84 -27.58,15.98 -10.23,-6.07 -20.89,-11.43 -30.77,-18.07 l -0.18,-0.82 z"
       id="path23106"
       inkscape:connector-curvature="0"
       style="fill:#ffffff;stroke:#ffffff;stroke-width:0.5" /><path
       d="m 1519.042,1534.422 c 2.73,-2.29 4.92,-5.43 8.04,-7.13 3.34,12.03 5.97,24.26 9.45,36.26 -2.07,2.46 -3.99,5.02 -5.72,7.73 -9.08,-2.7 -17.73,-6.69 -26.52,-10.17 -2.65,-1.38 -6.04,-2.16 -7.7,-4.78 7.15,-7.61 15.01,-14.57 22.45,-21.91 z"
       id="path23108"
       inkscape:connector-curvature="0"
       style="fill:#747474;stroke:#747474;stroke-width:0.5" /><path
       d="m 1574.052,1558.642 c 8.99,-5.66 18.16,-11.12 27.55,-16.04 9.83,6.53 20.42,11.8 30.47,17.97 0.11,2.19 -2.42,2.81 -3.83,3.96 -7.72,4.35 -15.32,8.95 -23.16,13.08 -9.32,-5.54 -18.73,-10.94 -28.12,-16.37 -1.05,-0.78 -2.66,-1.19 -2.91,-2.6 z"
       id="path23110"
       inkscape:connector-curvature="0"
       style="fill:#747474;stroke:#747474;stroke-width:0.5" /><path
       d="m 1543.632,1575.672 c 9.13,-5.42 18.32,-11 28.32,-14.65 9.34,5.03 18.54,10.34 27.66,15.8 0.77,0.63 2.26,0.89 2.4,2.13 -8.92,5.34 -17.86,10.69 -27.17,15.34 -8.8,-4.2 -17.18,-9.25 -25.58,-14.2 -1.85,-1.44 -4.69,-2.27 -5.63,-4.42 z"
       id="path23112"
       inkscape:connector-curvature="0"
       style="fill:#ffffff;stroke:#ffffff;stroke-width:0.5" /><path
       d="m 1659.502,1566.972 c 1.75,-0.9 4.48,-0.1 4.38,2.21 1.6,15.98 1.28,32.09 1.28,48.13 -0.15,8.02 -0.18,16.06 -0.99,24.06 -0.23,5.15 -5.68,7.26 -9.3,9.83 -27.88,16.62 -56.31,32.31 -84.5,48.39 -12.03,6.61 -23.82,13.75 -36.37,19.33 -1.87,0.69 -5.88,2.52 -6.4,-0.58 -1.68,-20.93 -1.67,-41.98 -1.49,-62.97 0.33,-4.6 -0.56,-10.21 3.46,-13.5 6.36,-5.58 13.88,-9.62 21.05,-14.05 27.99,-16.45 56.17,-32.57 84.41,-48.58 8.03,-4.31 15.83,-9.25 24.47,-12.27 m -6.15,4.78 c -35.76,19.66 -71.11,40.07 -106.3,60.73 -5.32,3.32 -11.01,6.17 -15.95,10.04 -3,5.36 -3,11.85 -3.29,17.86 0.19,2.71 -0.38,6.34 2.26,8.11 2.74,-1.15 5.14,-2.94 7.73,-4.38 41.63,-25.13 83.16,-50.44 124.67,-75.76 0.07,-5.32 0.11,-10.64 -0.27,-15.93 -0.16,-1.47 -0.36,-3.49 -2.09,-3.85 -2.44,0.57 -4.53,2.1 -6.76,3.18 m 3.68,22.82 c -19.2,11.25 -38.09,23 -57.13,34.51 -0.83,0.67 -2.56,1 -2.37,2.38 -0.03,16.65 -0.72,33.34 -0.28,49.98 0.38,-0.09 1.14,-0.26 1.52,-0.35 19.89,-11.85 40.49,-22.52 60.03,-34.97 2.57,-1.17 2.4,-4.28 2.8,-6.63 1.28,-13 1.68,-26.08 1.55,-39.13 -0.24,-2.7 0.19,-5.63 -1.21,-8.05 -1.86,0.16 -3.34,1.41 -4.91,2.26 m -68,41.73 c -10.14,5.35 -19.85,11.47 -29.67,17.38 -10.21,6.43 -20.86,12.31 -30.8,19.07 -0.19,12.18 -0.42,24.37 -0.39,36.55 0.14,2.65 -0.14,5.47 0.98,7.97 1.36,2.08 3.84,0.52 5.47,-0.32 20.12,-10.69 39.81,-22.15 59.59,-33.44 0.8,-4.56 0.18,-9.46 0.46,-14.14 -0.15,-11.41 0.65,-22.89 -0.51,-34.23 -1.84,-0.85 -3.54,0.46 -5.13,1.16 z"
       id="path23114"
       inkscape:connector-curvature="0"
       style="fill:#ffffff;stroke:#ffffff;stroke-width:0.5" /><path
       d="m 1653.352,1571.752 c 2.23,-1.08 4.32,-2.61 6.76,-3.18 1.73,0.36 1.93,2.38 2.09,3.85 0.38,5.29 0.34,10.61 0.27,15.93 -41.51,25.32 -83.04,50.63 -124.67,75.76 -2.59,1.44 -4.99,3.23 -7.73,4.38 -2.64,-1.77 -2.07,-5.4 -2.26,-8.11 0.29,-6.01 0.29,-12.5 3.29,-17.86 4.94,-3.87 10.63,-6.72 15.95,-10.04 35.19,-20.66 70.54,-41.07 106.3,-60.73 m 2.25,1.08 c -29.24,15.91 -58.03,32.62 -86.86,49.26 -12.07,7.23 -24.55,13.88 -36.17,21.8 -2.83,6.73 -3.1,14.39 -2.4,21.58 l 0.68,0.52 c 43.24,-26.08 86.33,-52.44 129.51,-78.63 0.34,-5.4 0.12,-10.84 -0.28,-16.22 -1.67,-0.67 -2.99,1.22 -4.48,1.69 z"
       id="path23116"
       inkscape:connector-curvature="0"
       style="stroke:#000000;stroke-width:0.5" /><path
       d="m 1655.602,1572.832 c 1.49,-0.47 2.81,-2.36 4.48,-1.69 0.4,5.38 0.62,10.82 0.28,16.22 -43.18,26.19 -86.27,52.55 -129.51,78.63 l -0.68,-0.52 c -0.7,-7.19 -0.43,-14.85 2.4,-21.58 11.62,-7.92 24.1,-14.57 36.17,-21.8 28.83,-16.64 57.62,-33.35 86.86,-49.26 z"
       id="path23118"
       inkscape:connector-curvature="0"
       style="fill:#747474;stroke:#747474;stroke-width:0.5" /><path
       d="m 1536.182,1583.332 c 0.79,-2.61 2.37,-4.82 4.81,-6.12 9.92,6.86 20.75,12.26 31.1,18.45 -0.49,1.38 -1.97,1.85 -3.06,2.63 -19.25,11.69 -38.65,23.31 -59.24,32.48 l -0.81,-0.32 c 8.54,-16 18.84,-31.02 27.2,-47.12 z"
       id="path23120"
       inkscape:connector-curvature="0"
       style="fill:#747474;stroke:#747474;stroke-width:0.5" /><path
       d="m 1657.032,1594.572 c 1.57,-0.85 3.05,-2.1 4.91,-2.26 1.4,2.42 0.97,5.35 1.21,8.05 0.13,13.05 -0.27,26.13 -1.55,39.13 -0.4,2.35 -0.23,5.46 -2.8,6.63 -19.54,12.45 -40.14,23.12 -60.03,34.97 -0.38,0.09 -1.14,0.26 -1.52,0.35 -0.44,-16.64 0.25,-33.33 0.28,-49.98 -0.19,-1.38 1.54,-1.71 2.37,-2.38 19.04,-11.51 37.93,-23.26 57.13,-34.51 m -18.46,13.35 c -13.04,7.96 -26.17,15.77 -39.1,23.89 -0.04,15.54 -0.35,31.08 -0.43,46.63 19.48,-11.15 39.28,-21.81 58.31,-33.75 2.37,-1.08 1.92,-4.09 2.35,-6.2 1.25,-14.46 1.89,-29.02 1.18,-43.52 -7.73,3.71 -14.87,8.66 -22.31,12.95 z"
       id="path23122"
       inkscape:connector-curvature="0"
       style="stroke:#000000;stroke-width:0.5" /><path
       d="m 1638.572,1607.922 c 7.44,-4.29 14.58,-9.24 22.31,-12.95 0.71,14.5 0.07,29.06 -1.18,43.52 -0.43,2.11 0.02,5.12 -2.35,6.2 -19.03,11.94 -38.83,22.6 -58.31,33.75 0.08,-15.55 0.39,-31.09 0.43,-46.63 12.93,-8.12 26.06,-15.93 39.1,-23.89 z"
       id="path23124"
       inkscape:connector-curvature="0"
       style="fill:#747474;stroke:#747474;stroke-width:0.5" /><path
       d="m 1589.032,1636.302 c 1.59,-0.7 3.29,-2.01 5.13,-1.16 1.16,11.34 0.36,22.82 0.51,34.23 -0.28,4.68 0.34,9.58 -0.46,14.14 -19.78,11.29 -39.47,22.75 -59.59,33.44 -1.63,0.84 -4.11,2.4 -5.47,0.32 -1.12,-2.5 -0.84,-5.32 -0.98,-7.97 -0.03,-12.18 0.2,-24.37 0.39,-36.55 9.94,-6.76 20.59,-12.64 30.8,-19.07 9.82,-5.91 19.53,-12.03 29.67,-17.38 m -3,3.88 c -18.75,10.76 -37.08,22.23 -55.53,33.5 -0.05,12.57 -0.49,25.14 -0.28,37.72 0.17,1.62 -0.16,3.55 0.9,4.99 10.8,-5.3 21.18,-11.41 31.67,-17.27 9.91,-5.76 20.07,-11.12 29.82,-17.14 0.01,-14.81 0.28,-29.63 0.02,-44.44 -2.51,-0.35 -4.44,1.72 -6.6,2.64 z"
       id="path23126"
       inkscape:connector-curvature="0"
       style="stroke:#000000;stroke-width:0.5" /><path
       d="m 1586.032,1640.182 c 2.16,-0.92 4.09,-2.99 6.6,-2.64 0.26,14.81 -0.01,29.63 -0.02,44.44 -9.75,6.02 -19.91,11.38 -29.82,17.14 -10.49,5.86 -20.87,11.97 -31.67,17.27 -1.06,-1.44 -0.73,-3.37 -0.9,-4.99 -0.21,-12.58 0.23,-25.15 0.28,-37.72 18.45,-11.27 36.78,-22.74 55.53,-33.5 z"
       id="path23128"
       inkscape:connector-curvature="0"
       style="fill:#747474;stroke:#747474;stroke-width:0.5" /></g></svg>